<?xml version="1.0" standalone="no"?>
<!DOCTYPE svg PUBLIC "-//W3C//DTD SVG 20010904//EN"
 "http://www.w3.org/TR/2001/REC-SVG-20010904/DTD/svg10.dtd">
<svg version="1.0" xmlns="http://www.w3.org/2000/svg"
 width="128.000000pt" height="128.000000pt" viewBox="0 0 128.000000 128.000000"
 preserveAspectRatio="xMidYMid meet">

<g transform="translate(0.000000,128.000000) scale(0.100000,-0.100000)"
fill="#FFFFFF" stroke="none">
<path d="M373 1266 c-178 -43 -325 -195 -362 -374 -62 -297 170 -582 473 -582
140 0 240 43 342 144 109 109 151 220 142 375 -3 45 -3 81 -1 81 2 0 19 -33
38 -72 53 -113 65 -195 65 -440 0 -202 1 -216 24 -263 25 -55 71 -100 125
-122 72 -31 84 15 14 51 -103 52 -112 81 -113 349 0 291 -24 395 -125 547 -53
80 -178 200 -261 250 -104 62 -244 84 -361 56z m191 -90 c72 -30 67 -121 -10
-184 -42 -35 -71 -39 -113 -17 -98 50 -110 175 -21 208 29 11 111 7 144 -7z
m-272 -205 c32 -36 53 -99 44 -135 -8 -33 -73 -76 -123 -82 -47 -6 -97 22
-107 61 -10 40 20 133 55 168 26 25 35 29 67 24 23 -4 47 -17 64 -36z m516 14
c31 -26 62 -99 62 -145 0 -37 -34 -77 -70 -85 -46 -10 -85 3 -132 44 l-43 39
13 46 c16 62 39 96 77 112 43 19 60 17 93 -11z m-278 -165 c24 -45 -25 -94
-69 -71 -23 13 -29 59 -9 79 20 20 66 15 78 -8z m169 -150 c72 -20 107 -85 76
-138 -26 -43 -104 -92 -147 -92 -77 0 -114 101 -68 190 25 49 66 61 139 40z
m-300 -21 c25 -27 45 -100 36 -138 -7 -33 -56 -81 -84 -81 -28 0 -119 50 -141
77 -22 28 -26 73 -9 104 30 57 157 81 198 38z"/>
</g>
</svg>
